<svg xmlns="http://www.w3.org/2000/svg" viewBox="0 0 24 30" fill="none" x="0px" y="0px">
    <path fill-rule="evenodd" clip-rule="evenodd"
        d="M5.61538 4C4.17095 4 3 5.23638 3 6.76153V18.6165C3 19.8466 4.40857 20.4626 5.23237 19.5928L6.54006 18.2121C6.7853 17.9531 7.11792 17.8076 7.46474 17.8076H18.3846C19.8291 17.8076 21 16.5713 21 15.0461V6.76153C21 5.23638 19.8291 4 18.3846 4H5.61538ZM8 12C8.55229 12 9 11.5523 9 11C9 10.4477 8.55229 10 8 10C7.44772 10 7 10.4477 7 11C7 11.5523 7.44772 12 8 12ZM13 11C13 11.5523 12.5523 12 12 12C11.4477 12 11 11.5523 11 11C11 10.4477 11.4477 10 12 10C12.5523 10 13 10.4477 13 11ZM16 12C16.5523 12 17 11.5523 17 11C17 10.4477 16.5523 10 16 10C15.4477 10 15 10.4477 15 11C15 11.5523 15.4477 12 16 12Z"
        fill="black" />
</svg>